<?xml version="1.0" encoding="utf-8"?>
<!-- Generator: Adobe Illustrator 22.0.0, SVG Export Plug-In . SVG Version: 6.00 Build 0)  -->
<svg version="1.1" id="Calque_1" xmlns="http://www.w3.org/2000/svg" xmlns:xlink="http://www.w3.org/1999/xlink" x="0px" y="0px"
	 viewBox="0 0 663.9 171.4" style="enable-background:new 0 0 663.9 171.4;" xml:space="preserve">
<style type="text/css">
	.st0{fill:#111111;}
</style>
<g>
	<path class="st0" d="M32.2,125.2c0.3,2,0.6,3.9,0.9,5.9c1.1,7.7,2.7,12.9,4.5,15.6c1.9,2.7,4.9,3.7,8.9,3.2
		c6.1-0.9,8.5-6.1,7.2-15.6c-0.3-2.3-0.8-4.5-1.5-6.4c-0.7-2-1.6-4-2.9-6c-1.3-2-2.9-4.2-4.9-6.4c-2-2.2-4.5-4.8-7.6-7.8
		c-4.2-4.4-8.4-8.8-12.6-13.2c-4-4.1-7.4-7.9-10.2-11.2c-2.8-3.4-5.1-6.5-7-9.6c-1.9-3-3.3-6-4.3-8.9c-1-2.9-1.8-5.9-2.3-9.1
		C-1,45.9,0.7,37.8,5.6,31.3c4.9-6.5,12.3-10.5,22.2-12c7.5-1.1,14.1-0.1,19.6,3c5.5,3.1,9.5,7.9,11.9,14.5c0.5,1.3,0.9,2.4,1.1,3.3
		c0.3,0.9,0.5,2,0.8,3.1c0.2,1.2,0.5,2.6,0.7,4.3c0.2,1.7,0.5,4.1,0.9,7.2c-6.9,1.6-13.9,3.1-20.8,4.8c-0.5-3.8-0.9-6.5-1.2-8.2
		c-0.3-1.7-0.7-3.3-1.3-4.8c-1.6-6-5-8.6-10.3-7.9c-6,0.9-8.3,5.8-7,14.8c0.3,2.2,0.7,4.1,1.2,5.7c0.5,1.6,1.4,3.4,2.7,5.3
		c1.3,1.9,3.2,4.2,5.7,6.9c2.5,2.7,5.9,6.4,10.1,11c4.3,4.4,8.5,8.9,12.7,13.3c5.8,6.3,10.4,12.8,14,19.5c3.5,6.7,5.7,13.2,6.5,19.4
		c1.2,9.7-0.4,17.5-4.9,23.4c-4.5,5.9-11.4,9.5-21,10.8c-10.8,1.5-19.6-0.9-26.3-7.6c-3-3-5.3-6.2-6.7-9.6
		c-1.4-3.4-2.7-8.3-3.7-14.7c-0.3-1.6-0.5-2.9-0.6-3.8c-0.1-0.9-0.3-2.3-0.4-4.1C18.4,127.9,25.3,126.5,32.2,125.2z"/>
	<path class="st0" d="M146.8,117.7c0.4,4.4,0.6,8,0.8,10.8c0.1,2.8,0.1,5.2,0,7.2c-0.1,2-0.4,3.7-0.9,5.2c-0.5,1.4-1.1,3-2,4.7
		c-2.2,4-5.3,7.3-9.4,9.9c-4.1,2.5-8.7,4.1-13.9,4.6c-5.1,0.5-10,0-14.5-1.6c-4.6-1.6-8.3-4.2-11.3-7.7c-1.2-1.5-2.2-2.9-3-4.2
		c-0.8-1.3-1.4-2.9-2-4.9c-0.6-1.9-1.1-4.3-1.5-7c-0.4-2.8-0.9-6.3-1.4-10.7c-2.9-23.9-5.7-47.8-8.6-71.6c-0.5-4.4-0.9-7.9-1.2-10.7
		c-0.3-2.8-0.3-5.2-0.2-7.2c0.2-2,0.5-3.7,0.9-5.2c0.5-1.5,1.1-3.1,2-4.8c2.2-4,5.5-7.3,9.9-9.9c4.4-2.6,9.4-4.3,14.9-4.8
		c5.5-0.6,10.7,0,15.6,1.6c4.8,1.7,8.8,4.2,11.8,7.6c1.2,1.5,2.2,2.9,3,4.3c0.8,1.3,1.4,3,1.9,4.9c0.5,1.9,0.9,4.3,1.4,7.1
		c0.4,2.8,0.8,6.3,1.2,10.7C142.4,69.8,144.6,93.8,146.8,117.7z M117.6,39.8c-0.4-4.2-1.4-7.2-3-8.8c-1.6-1.7-3.9-2.4-7.1-2
		c-3,0.3-5.2,1.5-6.4,3.4c-1.2,2-1.6,5.1-1.2,9.3c3.2,29.4,6.5,58.8,9.7,88.2c0.5,4.2,1.4,7.2,2.9,8.8c1.5,1.7,3.8,2.3,6.8,2
		c2.9-0.3,4.9-1.4,6.1-3.4c1.2-2,1.6-5,1.1-9.3C123.6,98.7,120.6,69.3,117.6,39.8z"/>
	<path class="st0" d="M212.6,3.3c8.8-0.5,17.7-0.9,26.5-1.3c2.1,48.9,4.2,97.7,6.3,146.6c-5.9,0.3-11.8,0.5-17.7,0.8
		c-1.8-34.5-3.6-69-5.4-103.5c-4.2,34.8-8.2,69.6-11.8,104.4c-2.9,0.2-5.9,0.4-8.8,0.6c-8-34.1-16.2-68.1-24.8-102.1
		c2.5,34.4,5.1,68.9,7.6,103.3c-5.7,0.4-11.5,0.9-17.2,1.3c-4-48.7-8-97.5-12-146.2c8.7-0.7,17.3-1.4,26-2
		c6.9,23.9,13.6,47.9,20.2,71.9C205,52.5,208.7,27.9,212.6,3.3z"/>
	<path class="st0" d="M311.6,0.1c0.1,6.5,0.1,12.9,0.2,19.4c-10.3,0.1-20.7,0.3-31,0.5c0.3,13.6,0.6,27.1,1,40.7
		c7.1-0.2,14.1-0.3,21.2-0.4c0.1,6.5,0.2,12.9,0.3,19.4c-7,0.1-14,0.2-21,0.4c0.4,16,0.8,32,1.1,47.9c10.4-0.2,20.8-0.4,31.2-0.5
		c0.1,6.5,0.1,12.9,0.2,19.4c-17.2,0.1-34.5,0.5-51.7,1.1c-1.7-48.9-3.3-97.8-5-146.7C275.9,0.7,293.8,0.3,311.6,0.1z"/>
	<path class="st0" d="M340.5,19.4c-6.8,0-13.6,0-20.4,0c0-6.5-0.1-12.9-0.1-19.4c21.5-0.1,43,0.1,64.5,0.6
		c-0.2,6.5-0.3,12.9-0.5,19.4c-7.1-0.2-14.3-0.3-21.4-0.4c-0.6,42.5-1.2,84.9-1.8,127.4c-6.9-0.1-13.8-0.2-20.8-0.2
		C340.1,104.3,340.3,61.8,340.5,19.4z"/>
	<path class="st0" d="M414.4,81.1c-0.9,22.4-1.8,44.8-2.7,67.3c-6.9-0.3-13.8-0.5-20.8-0.7c1.4-49,2.9-97.9,4.3-146.9
		c7.4,0.2,14.9,0.5,22.3,0.8c-0.8,20.1-1.6,40.2-2.4,60.2c5.7,0.2,11.4,0.5,17,0.7c1-20.1,1.9-40.1,2.9-60.2
		c7.4,0.4,14.8,0.8,22.3,1.2c-2.9,48.9-5.7,97.8-8.6,146.7c-6.9-0.4-13.8-0.8-20.7-1.1c1.1-22.4,2.2-44.8,3.2-67.2
		C425.7,81.5,420.1,81.3,414.4,81.1z"/>
	<path class="st0" d="M487.2,152.8c-6.9-0.5-13.8-1-20.7-1.5c3.3-48.8,6.6-97.6,9.9-146.4c7.4,0.5,14.8,1,22.2,1.6
		C494.8,55.2,491,104,487.2,152.8z"/>
	<path class="st0" d="M569.7,160.9c-6.9-0.8-13.8-1.6-20.7-2.4c-5.1-26.4-10.6-52.7-16.3-79.1c-2.5,25.5-5,51.1-7.4,76.6
		c-6.9-0.7-13.8-1.3-20.7-1.9c4.2-48.7,8.4-97.5,12.6-146.2c6.3,0.5,12.5,1.1,18.8,1.7c6.9,29.6,13.4,59.2,19.5,88.9
		c3.1-28.7,6.2-57.3,9.4-86c7.4,0.8,14.8,1.6,22.2,2.5C581.3,63.8,575.5,112.3,569.7,160.9z"/>
	<path class="st0" d="M645.2,171.4c-3.7-0.6-7.4-1.2-11.1-1.7c-0.5-3.5-1.1-7-1.6-10.5c-6.8,7.3-13.8,10.4-20.9,9.4
		c-4.2-0.6-8.1-2.3-11.5-5.2c-3.4-2.9-5.9-6.4-7.5-10.4c-1.2-3.3-1.9-6.7-2-10.4c-0.1-3.6,0.2-8.7,1.1-15.3
		c3.3-25.7,6.6-51.4,9.9-77c2.9-23.3,14.8-33.7,35.5-30.7c21.3,3.1,29.9,17.5,25.9,42.8c-0.3,1.6-0.5,3.2-0.8,4.8
		c-0.3,1.6-0.8,3.8-1.5,6.7c-7.2-1.1-14.4-2.2-21.6-3.3c0.6-2.3,1.1-4.1,1.3-5.4c0.2-1.3,0.4-2.8,0.6-4.4c1.2-8.1,1.4-13.7,0.5-16.7
		c-0.9-3-3.3-4.8-7.1-5.4c-3.5-0.5-6,0.2-7.5,2.2c-1.4,1.9-2.6,6.1-3.5,12.5c-3.6,25.6-7.1,51.2-10.7,76.8c-0.3,2.5-0.6,4.4-0.8,5.7
		c-0.2,1.3-0.3,2.4-0.3,3.2c0,0.8-0.1,1.5-0.1,2c0,0.5,0,1.1,0.1,1.9c0.2,2.1,0.8,3.8,2.1,5.2c1.2,1.4,2.7,2.2,4.5,2.4
		c2,0.3,3.9-0.1,5.6-1.2c1.7-1.1,2.9-2.6,3.7-4.6c0.5-1.4,0.9-2.8,1.2-4.1c0.3-1.3,0.7-4,1.3-8c1-7,2.1-13.9,3.1-20.9
		c-3.1-0.5-6.2-0.9-9.2-1.3c0.8-5.7,1.6-11.5,2.5-17.2c10.2,1.5,20.5,3,30.7,4.6C653,122.3,649.1,146.8,645.2,171.4z"/>
</g>
</svg>
