<?xml version="1.0" encoding="utf-8"?>
<!-- Generator: Adobe Illustrator 22.0.0, SVG Export Plug-In . SVG Version: 6.00 Build 0)  -->
<svg version="1.1" id="Calque_1" xmlns="http://www.w3.org/2000/svg" xmlns:xlink="http://www.w3.org/1999/xlink" x="0px" y="0px"
	 viewBox="0 0 571.7 167.7" style="enable-background:new 0 0 571.7 167.7;" xml:space="preserve">
<style type="text/css">
	.st0{fill:#111111;}
</style>
<g>
	<path class="st0" d="M21.2,19.5c5.2-0.8,9.7-1.2,13.5-1.4c3.8-0.2,7,0.1,9.9,0.7c2.8,0.6,5.2,1.6,7.3,3c2,1.4,4.1,3.3,6.1,5.5
		c1.3,1.8,2.5,3.5,3.5,5.3c1,1.8,1.9,3.8,2.7,6c0.7,2.2,1.4,4.7,2,7.6c0.6,2.9,1.1,6.4,1.6,10.4c0.6,5.1,1,9.4,1.2,12.9
		c0.2,3.5,0.2,6.6-0.1,9.3c-0.3,2.7-0.8,5.1-1.7,7.1c-0.8,2-1.9,4-3.2,5.9c-4.8,7-13.5,11.3-26.1,13.1c-1,0.1-2,0.3-2.9,0.4
		c2.9,19.7,5.7,39.3,8.6,59c-6.9,1-13.7,2-20.6,3.1C15.3,119.4,7.7,71.1,0,22.7C7.1,21.6,14.1,20.5,21.2,19.5z M35.2,86.4
		c7.5-1.1,11.7-4,12.6-8.9c0.1-1.2,0.1-3.5,0-6.9c-0.1-3.4-0.5-7-1-10.7c-0.5-3.6-1.1-7.1-1.9-10.4c-0.8-3.3-1.4-5.5-1.9-6.6
		c-2.2-4.4-7.2-6.1-14.9-5c-1,0.1-2,0.3-3,0.4c2.4,16.2,4.7,32.4,7.1,48.5C33.2,86.7,34.2,86.5,35.2,86.4z"/>
	<path class="st0" d="M100.4,9.6c4.9-0.5,9.2-0.7,12.9-0.6c3.7,0.1,6.9,0.5,9.7,1.3c2.8,0.8,5.2,2,7.2,3.6c2,1.6,4,3.6,5.8,5.9
		c2.5,3.3,4.4,7.1,5.7,11.3c1.3,4.2,2.2,9.4,2.7,15.6c0.4,4.7,0.5,8.6,0.5,11.9c0,3.2-0.4,6.2-0.9,8.9c-0.6,2.7-1.4,5.3-2.6,7.7
		c-1.2,2.5-2.8,5.1-4.9,7.9c7,22.9,13.7,45.8,20.3,68.7c-7.3,0.6-14.6,1.2-21.9,1.9c-5.8-20.6-11.8-41.2-18-61.7
		c-1.8,0.5-3.1,0.8-3.8,0.9c-0.7,0.2-1.9,0.4-3.6,0.7c2.1,20.6,4.2,41.3,6.3,61.9c-6.9,0.7-13.8,1.5-20.7,2.2
		C89.6,109.2,84,60.6,78.4,12C85.7,11.2,93.1,10.4,100.4,9.6z M110.3,72.8c7.4-0.7,11.7-3.4,12.8-8.1c0.2-0.9,0.4-1.8,0.5-2.7
		c0.1-0.9,0.1-2.1,0.1-3.5c0-1.5-0.1-3.3-0.3-5.5c-0.2-2.2-0.5-5-0.8-8.3c-0.6-6.9-2.1-11.4-4.6-13.7c-2.4-2.3-6.5-3.1-12.3-2.6
		c-1,0.1-2,0.2-3,0.3c1.5,14.8,3,29.6,4.5,44.4C108.4,73,109.4,72.9,110.3,72.8z"/>
	<path class="st0" d="M227.6,110.4c0.2,4.4,0.2,8,0.2,10.8c-0.1,2.8-0.2,5.2-0.4,7.2c-0.2,2-0.6,3.7-1.2,5.1
		c-0.5,1.4-1.3,2.9-2.3,4.6c-2.4,3.9-5.7,7-9.9,9.3c-4.3,2.3-8.9,3.6-14.1,3.9c-5.1,0.3-9.9-0.5-14.4-2.4c-4.5-1.9-8.1-4.6-10.9-8.2
		c-1.1-1.5-2.1-3-2.7-4.3c-0.7-1.3-1.3-3-1.8-4.9c-0.5-1.9-0.9-4.3-1.2-7.1c-0.3-2.8-0.6-6.4-0.9-10.7c-1.7-24-3.3-48-5-72
		c-0.3-4.4-0.5-8-0.6-10.8c-0.1-2.8,0-5.2,0.2-7.2c0.3-2,0.7-3.7,1.2-5.2c0.5-1.4,1.3-3,2.3-4.7c2.5-3.8,6-7,10.6-9.4
		c4.6-2.4,9.7-3.8,15.3-4.1c5.6-0.3,10.8,0.5,15.6,2.4c4.8,1.9,8.6,4.7,11.5,8.2c1.2,1.6,2.1,3,2.8,4.4c0.7,1.4,1.2,3,1.6,5
		c0.4,2,0.7,4.3,1,7.1c0.3,2.8,0.5,6.4,0.6,10.8C225.9,62.3,226.8,86.4,227.6,110.4z M202.6,31c-0.2-4.2-1-7.2-2.5-9
		c-1.5-1.8-3.8-2.6-7.1-2.4c-3.1,0.2-5.3,1.2-6.7,3.1c-1.4,1.9-1.9,5-1.7,9.2c1.7,29.5,3.4,59.1,5.1,88.6c0.2,4.2,1.1,7.2,2.5,9
		c1.4,1.8,3.6,2.5,6.7,2.4c2.9-0.2,5-1.2,6.3-3.1c1.3-1.9,1.8-5,1.6-9.2C205.4,90.1,204,60.6,202.6,31z"/>
	<path class="st0" d="M272,0.1c0.3,37.2,0.7,74.4,1,111.5c0,3.5,0,6.5,0,8.8c-0.1,2.3-0.1,4.4-0.3,6.1c-0.1,1.7-0.4,3.1-0.7,4.3
		c-0.4,1.2-0.8,2.4-1.2,3.5c-1.2,2.5-2.5,4.6-4.1,6.2c-1.5,1.6-3.5,2.9-5.9,3.9c-2.4,1-5.3,1.7-8.6,2.1c-3.4,0.4-7.6,0.7-12.6,0.9
		c-0.2-6.7-0.4-13.5-0.6-20.2c0.7,0,1.5,0,2.2-0.1c4.2-0.1,7-1.1,8.5-3.1c1.5-1.9,2.2-5.3,2.1-9.9c-0.8-37.9-1.6-75.8-2.4-113.7
		C257,0.3,264.5,0.1,272,0.1z"/>
	<path class="st0" d="M345.2,0.9c-0.2,6.5-0.4,12.9-0.6,19.4c-10.4-0.3-20.9-0.5-31.3-0.7c-0.2,13.6-0.4,27.1-0.5,40.7
		c7.1,0.1,14.2,0.2,21.4,0.4c-0.2,6.5-0.3,12.9-0.5,19.4c-7-0.2-14.1-0.3-21.1-0.4c-0.2,16-0.4,32-0.6,48
		c10.4,0.1,20.9,0.4,31.3,0.7c-0.2,6.5-0.4,12.9-0.6,19.4c-17.2-0.5-34.5-0.8-51.7-0.8c0.1-48.9,0.1-97.8,0.2-146.7
		C309.1,0,327.1,0.3,345.2,0.9z"/>
	<path class="st0" d="M417.7,99.1c-0.1,4-0.3,7-0.3,9.1c-0.1,2.1-0.2,4.2-0.3,6.3c-2,26.1-12.8,38.3-32.6,37.1
		c-19.2-1.1-28.4-13.1-27.5-36.6c1.1-26.9,2.1-53.8,3.2-80.7c0.9-23.4,11.8-34.8,32.8-33.7c21.7,1.2,31.5,14.9,29.6,40.5
		c-0.1,1.8-0.3,3.4-0.4,4.9c-0.1,1.5-0.4,3.8-1,6.7c-7.3-0.5-14.6-1-21.9-1.5c0.5-2.5,0.7-4.3,0.8-5.6c0.1-1.2,0.2-2.7,0.3-4.5
		c0.5-8,0.2-13.5-1-16.5c-1.1-2.9-3.6-4.5-7.5-4.7c-3.6-0.2-6,0.7-7.2,2.8c-1.3,2.1-2.1,6.3-2.4,12.7c-1.4,26.8-2.8,53.5-4.1,80.3
		c-0.3,6.4,0,10.7,1,12.9c1,2.2,3.1,3.3,6.5,3.5c3.5,0.2,5.9-1,7.4-3.6c1.5-2.6,2.4-7.7,2.9-15.4c0.2-2.5,0.3-4.8,0.3-6.9
		c0.1-2.1,0.1-5,0.2-8.7C403.4,98.1,410.5,98.6,417.7,99.1z"/>
	<path class="st0" d="M454.2,26.8c-6.9-0.6-13.7-1.2-20.6-1.8c0.5-6.4,1-12.9,1.5-19.3c21.7,1.7,43.4,3.8,65.1,6.3
		c-0.7,6.4-1.5,12.8-2.2,19.2c-7.2-0.8-14.3-1.6-21.5-2.3c-4.4,42.2-8.7,84.5-13.1,126.7c-6.9-0.7-13.8-1.4-20.7-2
		C446.5,111.4,450.4,69.1,454.2,26.8z"/>
	<path class="st0" d="M520.6,118.6c-0.3,2-0.5,3.9-0.8,5.9c-1,7.7-1,13.1,0.1,16.2c1.1,3.1,3.6,4.9,7.7,5.5c6.1,0.9,9.9-3.5,11.3-13
		c0.3-2.3,0.5-4.5,0.4-6.6c-0.1-2.1-0.4-4.3-1.1-6.6c-0.7-2.3-1.6-4.8-3-7.5c-1.3-2.7-3-5.9-5.1-9.6c-2.8-5.4-5.6-10.8-8.5-16.2
		c-2.7-5.1-5-9.6-6.8-13.6c-1.8-4-3.1-7.7-4.1-11.1c-1-3.4-1.6-6.7-1.8-9.7c-0.2-3-0.1-6.2,0.3-9.4c1.2-9.6,5-16.9,11.6-21.8
		c6.6-4.9,14.9-6.7,25-5.3c7.6,1.1,13.7,3.9,18.2,8.4c4.5,4.5,7,10.3,7.5,17.2c0.1,1.4,0.2,2.5,0.2,3.5c0,1,0,2-0.1,3.2
		c-0.1,1.2-0.3,2.6-0.6,4.4c-0.3,1.7-0.6,4.1-1.1,7.2c-7.2-0.5-14.3-0.9-21.5-1.2c0.5-3.8,0.9-6.5,1.1-8.2c0.2-1.7,0.2-3.3,0.1-5
		c0.1-6.2-2.5-9.7-7.8-10.4c-6.1-0.8-9.7,3.3-10.9,12.2c-0.3,2.2-0.4,4.1-0.4,5.8c0,1.7,0.4,3.6,1.1,5.8c0.7,2.2,1.9,4.9,3.6,8.3
		c1.7,3.3,3.9,7.8,6.7,13.4c2.9,5.4,5.8,10.9,8.6,16.4c3.8,7.7,6.5,15.2,8,22.7c1.5,7.4,1.8,14.2,0.8,20.5
		c-1.5,9.7-5.3,16.7-11.3,21.1c-6,4.4-13.6,5.9-23.2,4.6c-10.8-1.5-18.6-6.3-23.2-14.5c-2.1-3.7-3.4-7.4-3.8-11.1
		c-0.5-3.7-0.3-8.7,0.5-15.1c0.2-1.6,0.3-2.9,0.5-3.8c0.1-0.9,0.4-2.3,0.7-4C506.6,117.4,513.6,118,520.6,118.6z"/>
</g>
</svg>
