<?xml version="1.0" encoding="utf-8"?>
<!-- Generator: Adobe Illustrator 22.0.0, SVG Export Plug-In . SVG Version: 6.00 Build 0)  -->
<svg version="1.1" id="Calque_1" xmlns="http://www.w3.org/2000/svg" xmlns:xlink="http://www.w3.org/1999/xlink" x="0px" y="0px"
	 viewBox="0 0 597.5 179.8" style="enable-background:new 0 0 597.5 179.8;" xml:space="preserve">
<style type="text/css">
	.st0{fill:#111111;}
</style>
<g>
	<path class="st0" d="M54.4,17.7c0.8,6.4,1.7,12.8,2.5,19.2c-10.5,1.4-21,2.8-31.5,4.3c2,13.4,3.9,26.8,5.9,40.3
		c7.2-1,14.3-2,21.5-3c0.9,6.4,1.7,12.8,2.6,19.2c-7.1,1-14.2,1.9-21.2,3c2.3,15.8,4.6,31.6,6.9,47.5c10.5-1.5,21-3,31.5-4.3
		c0.8,6.4,1.6,12.8,2.5,19.2c-17.4,2.2-34.7,4.7-52,7.4C15.3,122.1,7.7,73.8,0,25.5C18.1,22.7,36.3,20,54.4,17.7z"/>
	<path class="st0" d="M102.1,92c2.4,22.3,4.8,44.6,7.2,66.9c-7,0.8-14,1.6-21,2.4c-5.8-48.6-11.7-97.3-17.5-145.9
		c7.6-0.9,15.1-1.8,22.7-2.6c2.2,20,4.3,40,6.5,59.9c5.8-0.6,11.5-1.2,17.3-1.8c-2-20-3.9-40-5.9-60c7.6-0.7,15.2-1.4,22.7-2.1
		c4.2,48.8,8.4,97.6,12.7,146.4c-7,0.6-14,1.3-21,1.9c-2.2-22.3-4.4-44.7-6.6-67C113.5,90.8,107.8,91.4,102.1,92z"/>
	<path class="st0" d="M185.9,130.3c0.5,7.3,0.9,14.6,1.4,22c-2.6,8.9-5.2,17.8-7.7,26.7c-3.8,0.3-7.6,0.5-11.4,0.8
		c1.9-8.9,3.8-17.8,5.7-26.7c-2.6,0.2-5.1,0.4-7.7,0.6c-0.6-7.3-1.1-14.6-1.7-21.9C171.7,131.3,178.8,130.8,185.9,130.3z"/>
	<path class="st0" d="M262,105.6c0,2,0.1,4,0.1,5.9c0.2,7.8,1,13.1,2.6,16c1.6,2.9,4.4,4.3,8.6,4.3c6.3-0.1,9.3-4.9,9.3-14.6
		c0-2.3-0.2-4.5-0.6-6.6c-0.4-2-1.1-4.2-2.1-6.3c-1-2.2-2.4-4.5-4.1-7c-1.7-2.5-3.9-5.4-6.6-8.7c-3.6-4.9-7.3-9.8-11-14.7
		c-3.5-4.6-6.5-8.7-8.9-12.4c-2.4-3.7-4.3-7.1-5.8-10.4c-1.5-3.2-2.6-6.4-3.3-9.4c-0.7-3-1-6.1-1.1-9.3c-0.3-9.7,2.4-17.4,8.2-23.3
		c5.8-5.9,13.9-8.9,24.1-9.1c7.8-0.1,14.3,1.7,19.5,5.5c5.2,3.8,8.6,9.1,10.2,15.9c0.3,1.3,0.6,2.5,0.7,3.4c0.2,1,0.3,2,0.4,3.2
		c0.1,1.2,0.1,2.6,0.1,4.4c0,1.8,0,4.2,0,7.3c-7.2,0.6-14.4,1.3-21.6,2.1c0-3.8-0.1-6.6-0.2-8.2c-0.1-1.7-0.3-3.3-0.6-4.9
		c-0.8-6.2-4-9.2-9.4-9.1c-6.2,0.1-9.2,4.7-9,13.8c0,2.2,0.2,4.1,0.5,5.8c0.3,1.7,0.9,3.5,2,5.6c1.1,2,2.7,4.6,4.9,7.6
		c2.2,3,5.1,7.1,8.8,12.2c3.7,4.9,7.4,9.9,11.1,14.8c5,7,8.8,14.1,11.5,21.2c2.7,7.1,4,13.8,4,20.1c0,9.8-2.7,17.3-8,22.6
		c-5.3,5.3-12.7,7.9-22.4,8.1c-11.1,0.2-19.5-3.4-25.5-10.8c-2.7-3.3-4.5-6.8-5.5-10.4c-1-3.6-1.6-8.6-1.8-15
		c-0.1-1.6-0.1-2.9-0.1-3.8c0-1,0-2.3,0.1-4.1C247.8,106.5,254.9,106,262,105.6z"/>
	<path class="st0" d="M336.2,21.7c-7-0.1-13.9-0.2-20.9-0.3c0.1-6.5,0.1-12.9,0.2-19.4c22,0.2,44,0.8,66,1.7
		c-0.3,6.4-0.6,12.9-0.8,19.3c-7.3-0.3-14.6-0.6-21.8-0.8c-1.3,42.4-2.7,84.9-4,127.3c-7-0.2-14-0.4-21.1-0.5
		C334.5,106.6,335.4,64.2,336.2,21.7z"/>
	<path class="st0" d="M408.2,123.1c-0.3,4.2,0.3,7.3,1.5,9.2c1.3,1.9,3.4,3,6.3,3.2c3.1,0.2,5.3-0.6,6.8-2.3c1.4-1.7,2.3-4.7,2.6-9
		c2.8-39.2,5.6-78.4,8.3-117.6c7.6,0.5,15.2,1.1,22.8,1.8c-3,36.4-6,72.8-9.1,109.2c-0.4,4.4-0.7,8-1.1,10.7
		c-0.4,2.8-0.8,5.1-1.3,7.1c-0.5,2-1.1,3.6-1.8,5c-0.7,1.4-1.7,2.8-2.8,4.3c-2.8,3.5-6.5,6.1-11.1,8c-4.6,1.8-9.4,2.5-14.6,2.2
		c-5.2-0.3-9.9-1.7-14.2-4.1c-4.3-2.4-7.6-5.5-10-9.4c-1-1.7-1.7-3.2-2.2-4.7c-0.5-1.4-0.9-3.2-1.2-5.2c-0.3-2-0.4-4.4-0.3-7.2
		c0.1-2.8,0.2-6.4,0.4-10.8c1.8-36.5,3.6-73,5.4-109.4c7.6,0.4,15.2,0.8,22.8,1.3C413,44.6,410.6,83.8,408.2,123.1z"/>
	<path class="st0" d="M530.5,16.1c-0.8,6.4-1.6,12.8-2.3,19.2c-10.5-1.3-21-2.5-31.6-3.6c-1.4,13.5-2.8,27-4.3,40.5
		c7.2,0.8,14.4,1.6,21.5,2.4c-0.8,6.4-1.5,12.8-2.3,19.2c-7.1-0.8-14.2-1.6-21.3-2.4c-2.3,22.3-4.7,44.6-7,67c-7-0.7-14-1.4-21-2.1
		c4.5-48.7,9.1-97.4,13.6-146.1C494.1,11.9,512.3,13.9,530.5,16.1z"/>
	<path class="st0" d="M597.5,25.5c-1,6.4-2,12.7-3,19.1c-10.5-1.7-21-3.2-31.4-4.7c-1.9,13.4-3.8,26.9-5.7,40.3
		c7.2,1,14.3,2.1,21.4,3.2c-1,6.4-2,12.8-2.9,19.1c-7.1-1.1-14.1-2.1-21.2-3.1c-3.1,22.2-6.3,44.4-9.4,66.7c-7-1-13.9-1.9-20.9-2.8
		c6.3-48.5,12.5-97,18.8-145.5C561.2,20,579.4,22.7,597.5,25.5z"/>
</g>
</svg>
