<?xml version="1.0" encoding="utf-8"?>
<!-- Generator: Adobe Illustrator 22.0.0, SVG Export Plug-In . SVG Version: 6.00 Build 0)  -->
<svg version="1.1" id="Calque_1" xmlns="http://www.w3.org/2000/svg" xmlns:xlink="http://www.w3.org/1999/xlink" x="0px" y="0px"
	 viewBox="0 0 713.7 173" style="enable-background:new 0 0 713.7 173;" xml:space="preserve">
<style type="text/css">
	.st0{fill:#111111;}
</style>
<g>
	<path class="st0" d="M32.2,128.8c0.3,2,0.6,3.9,0.9,5.9c1.1,7.7,2.7,12.9,4.5,15.6c1.9,2.7,4.9,3.7,8.9,3.1
		c6.1-0.9,8.5-6.1,7.2-15.7c-0.3-2.3-0.8-4.5-1.5-6.4c-0.7-2-1.6-4-2.9-6c-1.3-2-2.9-4.2-4.9-6.4c-2-2.2-4.5-4.8-7.5-7.8
		c-4.2-4.4-8.4-8.8-12.6-13.2c-4-4.1-7.4-7.9-10.2-11.2C11.3,83.2,9,80,7.1,77c-1.9-3-3.3-6-4.3-8.9c-1-2.9-1.8-5.9-2.3-9.1
		c-1.5-9.5,0.1-17.6,5-24.1c4.9-6.5,12.3-10.5,22.1-12c7.5-1.1,14-0.1,19.5,3c5.5,3.1,9.5,7.9,11.9,14.4c0.5,1.3,0.9,2.4,1.1,3.3
		c0.3,0.9,0.5,2,0.8,3.1c0.2,1.2,0.5,2.6,0.7,4.3c0.2,1.7,0.5,4.1,0.9,7.2c-6.9,1.6-13.8,3.2-20.7,4.8c-0.5-3.8-0.9-6.5-1.3-8.2
		c-0.3-1.7-0.7-3.3-1.3-4.8c-1.6-6-5-8.6-10.2-7.9c-6,0.9-8.3,5.8-7,14.8c0.3,2.2,0.7,4.1,1.2,5.7c0.5,1.6,1.4,3.4,2.7,5.3
		c1.3,1.9,3.2,4.2,5.7,6.9c2.5,2.7,5.9,6.4,10.1,11c4.3,4.4,8.5,8.9,12.7,13.3c5.8,6.3,10.4,12.8,14,19.5c3.5,6.7,5.7,13.2,6.5,19.4
		c1.3,9.7-0.4,17.5-4.8,23.4c-4.5,5.9-11.4,9.5-20.9,10.9c-10.8,1.6-19.6-0.9-26.3-7.5c-3-3-5.3-6.2-6.7-9.6
		c-1.4-3.4-2.7-8.3-3.7-14.7c-0.3-1.6-0.5-2.9-0.6-3.8c-0.1-0.9-0.3-2.3-0.4-4.1C18.4,131.5,25.3,130.1,32.2,128.8z"/>
	<path class="st0" d="M146.6,121c0.4,4.4,0.7,8,0.8,10.8c0.1,2.8,0.1,5.2,0,7.2c-0.1,2-0.4,3.7-0.8,5.2c-0.5,1.4-1.1,3-2,4.7
		c-2.1,4-5.3,7.3-9.4,9.9c-4.1,2.6-8.7,4.1-13.8,4.7c-5.1,0.6-10,0-14.5-1.6c-4.6-1.6-8.3-4.2-11.3-7.6c-1.2-1.5-2.2-2.9-3-4.2
		c-0.8-1.3-1.4-2.9-2.1-4.8c-0.6-1.9-1.1-4.3-1.5-7c-0.4-2.8-0.9-6.3-1.4-10.7c-2.9-23.9-5.9-47.7-8.8-71.6
		c-0.5-4.4-0.9-7.9-1.2-10.7c-0.3-2.8-0.3-5.2-0.2-7.2c0.1-2,0.4-3.7,0.9-5.2c0.5-1.5,1.1-3.1,2-4.8c2.2-4,5.5-7.3,9.9-9.9
		c4.4-2.6,9.3-4.3,14.8-4.9c5.5-0.6,10.7-0.1,15.5,1.6c4.8,1.6,8.8,4.2,11.8,7.6c1.2,1.5,2.3,2.9,3,4.2c0.8,1.3,1.4,3,1.9,4.9
		c0.5,1.9,1,4.3,1.4,7.1c0.4,2.8,0.8,6.3,1.3,10.7C142,73.2,144.3,97.1,146.6,121z M117.1,43.3c-0.4-4.2-1.4-7.2-3-8.8
		c-1.6-1.7-3.9-2.3-7.1-2c-3,0.3-5.2,1.5-6.4,3.5c-1.2,2-1.6,5.1-1.1,9.3c3.3,29.4,6.6,58.8,10,88.2c0.5,4.2,1.5,7.2,3,8.8
		c1.5,1.7,3.8,2.3,6.8,2c2.9-0.3,4.9-1.4,6.1-3.4c1.2-2,1.5-5,1.1-9.3C123.3,102.1,120.2,72.7,117.1,43.3z"/>
	<path class="st0" d="M211.5,6.3c8.8-0.5,17.6-1,26.4-1.5c2.5,48.9,5,97.7,7.4,146.6c-5.9,0.3-11.8,0.6-17.7,1
		c-2-34.5-4.1-69-6.1-103.4c-4,34.8-7.7,69.7-11.1,104.5c-2.9,0.2-5.9,0.4-8.8,0.6c-8.2-34-16.6-68-25.4-102
		c2.7,34.4,5.5,68.9,8.2,103.3c-5.7,0.5-11.5,0.9-17.2,1.4c-4.3-48.7-8.5-97.5-12.8-146.2c8.6-0.8,17.3-1.5,25.9-2.1
		c7,23.9,13.9,47.8,20.6,71.7C204.4,55.5,207.9,30.9,211.5,6.3z"/>
	<path class="st0" d="M310.1,2.2c0.1,6.5,0.2,12.9,0.4,19.4c-10.3,0.2-20.6,0.5-30.9,0.8c0.4,13.6,0.9,27.1,1.3,40.7
		c7-0.2,14.1-0.4,21.1-0.6c0.2,6.5,0.3,12.9,0.5,19.4c-7,0.2-14,0.4-21,0.6c0.5,16,1,32,1.6,47.9c10.4-0.3,20.8-0.6,31.2-0.8
		c0.1,6.5,0.2,12.9,0.4,19.4c-17.2,0.3-34.5,0.8-51.7,1.6c-2.1-48.9-4.2-97.7-6.2-146.6C274.6,3.1,292.3,2.6,310.1,2.2z"/>
	<path class="st0" d="M384.2,105.2c0,2-0.1,4-0.1,5.9c-0.1,7.8,0.6,13.1,2,16.1c1.4,3,4.2,4.5,8.3,4.5c6.2,0.1,9.4-4.6,9.6-14.3
		c0.1-2.3-0.1-4.5-0.4-6.6c-0.3-2.1-1-4.2-1.9-6.4c-0.9-2.2-2.2-4.6-3.8-7.1c-1.6-2.5-3.7-5.5-6.2-8.9c-3.4-5-6.8-10.1-10.3-15.1
		c-3.3-4.7-6.1-9-8.2-12.7c-2.2-3.8-4-7.3-5.3-10.6c-1.4-3.3-2.3-6.5-2.8-9.5c-0.5-3-0.8-6.1-0.8-9.3c0-9.7,3-17.3,8.8-23
		c5.8-5.7,13.8-8.4,23.7-8.3c7.6,0.1,13.8,2.2,18.7,6.1c4.9,3.9,8.1,9.3,9.4,16.2c0.3,1.3,0.5,2.5,0.6,3.4c0.1,1,0.2,2,0.3,3.2
		c0,1.2,0,2.6,0,4.4c-0.1,1.8-0.1,4.2-0.2,7.3c-7.1,0.4-14.1,0.9-21.2,1.4c0.1-3.8,0.1-6.6,0.1-8.3c0-1.7-0.2-3.3-0.5-5
		c-0.6-6.2-3.6-9.3-8.8-9.4c-6-0.1-9.1,4.4-9.2,13.5c0,2.2,0.1,4.1,0.3,5.8c0.2,1.7,0.8,3.6,1.8,5.6c1,2.1,2.5,4.7,4.5,7.8
		c2,3.1,4.8,7.3,8.2,12.5c3.5,5.1,7,10.1,10.4,15.2c4.7,7.2,8.2,14.3,10.6,21.5c2.4,7.2,3.5,13.9,3.3,20.2
		c-0.3,9.8-3.2,17.3-8.5,22.4c-5.3,5.1-12.8,7.6-22.4,7.4c-10.9-0.2-19.1-4.1-24.7-11.7c-2.5-3.4-4.2-6.9-5.1-10.6
		c-0.9-3.6-1.3-8.6-1.3-15.1c0-1.6,0-2.9,0-3.9c0-1,0.1-2.3,0.2-4.1C370.2,105.6,377.2,105.4,384.2,105.2z"/>
	<path class="st0" d="M459.3,23.6c-6.8-0.3-13.6-0.6-20.3-0.8c0.2-6.4,0.5-12.9,0.7-19.3c21.4,0.8,42.8,1.9,64.1,3.3
		c-0.4,6.4-0.8,12.9-1.3,19.3c-7.1-0.5-14.2-0.9-21.3-1.3c-2.4,42.4-4.7,84.8-7.1,127.2c-6.9-0.4-13.8-0.7-20.7-1.1
		C455.4,108.4,457.3,66,459.3,23.6z"/>
	<path class="st0" d="M527.4,126.4c-0.3,4.2,0.1,7.3,1.3,9.3c1.2,1.9,3.3,3,6.2,3.3c3,0.3,5.3-0.5,6.7-2.2c1.5-1.7,2.4-4.7,2.7-8.9
		c3.4-39.2,6.9-78.3,10.3-117.5c7.4,0.6,14.7,1.3,22.1,2c-3.5,36.3-7.1,72.7-10.6,109c-0.4,4.4-0.9,8-1.3,10.7
		c-0.4,2.8-0.9,5.1-1.4,7.1c-0.5,1.9-1.1,3.6-1.8,4.9c-0.7,1.3-1.7,2.8-2.9,4.3c-2.9,3.5-6.6,6.1-11.1,7.8c-4.5,1.7-9.3,2.4-14.5,2
		c-5.1-0.4-9.8-1.9-14-4.4c-4.2-2.5-7.4-5.7-9.6-9.5c-0.9-1.7-1.6-3.3-2.1-4.7c-0.5-1.4-0.9-3.2-1.1-5.2c-0.2-2-0.3-4.4-0.2-7.2
		c0.1-2.8,0.3-6.4,0.6-10.8c2.5-36.4,5.1-72.9,7.6-109.3c7.4,0.5,14.8,1.1,22.1,1.7C533.6,48,530.5,87.2,527.4,126.4z"/>
	<path class="st0" d="M648.6,20.7c-0.8,6.4-1.7,12.8-2.5,19.2c-10.2-1.3-20.5-2.6-30.7-3.8c-1.6,13.5-3.1,27-4.7,40.4
		c7,0.8,14,1.7,21,2.5c-0.8,6.4-1.6,12.8-2.4,19.2c-6.9-0.9-13.9-1.7-20.8-2.5c-2.6,22.3-5.1,44.6-7.7,66.9
		c-6.9-0.8-13.8-1.6-20.7-2.3c5.1-48.6,10.3-97.3,15.4-145.9C613.2,16.4,630.9,18.5,648.6,20.7z"/>
	<path class="st0" d="M713.7,30.1c-1,6.4-2,12.7-3,19.1c-10.2-1.6-20.4-3.2-30.6-4.6c-1.9,13.4-3.9,26.9-5.8,40.3c7,1,14,2.1,21,3.1
		c-1,6.4-2,12.8-2.9,19.1c-6.9-1.1-13.9-2.1-20.8-3.1c-3.2,22.2-6.4,44.4-9.6,66.6c-6.9-1-13.7-2-20.6-2.9
		c6.5-48.5,13.1-97,19.6-145.4C678.4,24.7,696.1,27.3,713.7,30.1z"/>
</g>
</svg>
