<?xml version="1.0" encoding="utf-8"?>
<!-- Generator: Adobe Illustrator 22.0.0, SVG Export Plug-In . SVG Version: 6.00 Build 0)  -->
<svg version="1.1" id="Calque_1" xmlns="http://www.w3.org/2000/svg" xmlns:xlink="http://www.w3.org/1999/xlink" x="0px" y="0px"
	 viewBox="0 0 578.7 168.8" style="enable-background:new 0 0 578.7 168.8;" xml:space="preserve">
<style type="text/css">
	.st0{fill:#111111;}
</style>
<g>
	<path class="st0" d="M21.1,165.8c-6.6,1-13.1,2-19.7,3C0.4,119.4-0.1,70,0,20.5c9.5-1.4,19-2.7,28.5-4
		c13.3,47.6,26,95.3,38.3,143.1c-6.7,0.8-13.3,1.6-20,2.5c-2.7-10.7-5.4-21.5-8.1-32.2c-6.3,0.8-12.5,1.7-18.8,2.6
		C20.3,143.7,20.7,154.7,21.1,165.8z M17.2,44.8c0.6,22.8,1.4,45.6,2.2,68.4c4.8-0.7,9.6-1.4,14.5-2C28.4,89,22.8,66.9,17.2,44.8z"
		/>
	<path class="st0" d="M146.7,151.8c-6.9,0.5-13.8,1.1-20.7,1.7c-10.2-24.9-20.7-49.7-31.5-74.4c2.6,25.5,5.1,51.1,7.7,76.6
		c-6.9,0.7-13.8,1.4-20.7,2.2C76,109.3,70.6,60.7,65.1,12.1c6.3-0.7,12.6-1.4,19-2c12.7,27.7,24.9,55.5,36.7,83.4
		c-2.5-28.7-5-57.4-7.5-86.1c7.5-0.7,14.9-1.3,22.4-1.8C139.3,54.3,143,103,146.7,151.8z"/>
	<path class="st0" d="M148.3,4.6c8-0.6,16.1-1.1,24.1-1.5c5.1,17.8,10.1,35.6,15,53.4c3.1-18.2,6.3-36.4,9.6-54.6
		c7.8-0.3,15.6-0.6,23.4-0.9C213,29.8,206,58.7,199.4,87.6c0.9,20.3,1.8,40.6,2.7,60.9c-6.9,0.3-13.8,0.7-20.7,1
		c-1.1-20.3-2.3-40.6-3.4-60.8C168.4,60.6,158.5,32.6,148.3,4.6z"/>
	<path class="st0" d="M252.7,19.6c-6.9,0.1-13.7,0.2-20.6,0.4c-0.2-6.5-0.3-12.9-0.5-19.4c21.7-0.6,43.4-0.7,65-0.6
		c-0.1,6.5-0.1,12.9-0.2,19.4c-7.2-0.1-14.4-0.1-21.5-0.1c0.1,42.5,0.3,84.9,0.4,127.4c-6.9,0-13.8,0.1-20.8,0.2
		C254,104.5,253.4,62.1,252.7,19.6z"/>
	<path class="st0" d="M328.1,80.1c-0.6,22.4-1.1,44.9-1.7,67.3c-6.9-0.2-13.8-0.3-20.8-0.4c0.7-49,1.4-98,2-146.9
		c7.5,0.1,15,0.3,22.5,0.4c-0.5,20.1-1,40.2-1.5,60.3c5.7,0.1,11.4,0.3,17.1,0.5c0.7-20.1,1.4-40.2,2.1-60.2
		c7.5,0.3,15,0.6,22.5,0.9c-2.3,48.9-4.5,97.9-6.8,146.8c-6.9-0.3-13.8-0.6-20.8-0.8c0.8-22.4,1.6-44.9,2.3-67.3
		C339.4,80.4,333.8,80.2,328.1,80.1z"/>
	<path class="st0" d="M401.9,150.9c-6.9-0.5-13.8-0.9-20.7-1.3c2.7-48.8,5.5-97.7,8.2-146.5c7.5,0.4,15,0.9,22.4,1.4
		C408.5,53.3,405.2,102.1,401.9,150.9z"/>
	<path class="st0" d="M484.5,158.4c-6.9-0.8-13.8-1.5-20.7-2.2c-5.3-26.3-10.9-52.7-16.9-79c-2.3,25.6-4.6,51.1-6.9,76.7
		c-6.9-0.6-13.8-1.2-20.7-1.7c3.8-48.8,7.6-97.5,11.4-146.3c6.3,0.5,12.7,1,19,1.6c7.2,29.6,14,59.2,20.3,88.8
		c3-28.7,5.9-57.3,8.9-86c7.5,0.8,14.9,1.6,22.4,2.4C495.7,61.2,490.1,109.8,484.5,158.4z"/>
	<path class="st0" d="M560,168.7c-3.7-0.6-7.4-1.2-11.1-1.7c-0.5-3.5-1.1-7-1.6-10.5c-6.8,7.3-13.7,10.4-20.9,9.4
		c-4.2-0.6-8.1-2.3-11.5-5.2c-3.4-2.9-5.9-6.4-7.5-10.4c-1.2-3.3-1.9-6.7-2.1-10.4c-0.1-3.6,0.2-8.7,1-15.3
		c3.2-25.7,6.4-51.4,9.6-77.1c2.9-23.3,14.7-33.7,35.6-30.8c21.5,3.1,30.2,17.5,26.1,42.8c-0.3,1.6-0.5,3.2-0.8,4.8
		c-0.3,1.6-0.8,3.8-1.5,6.7c-7.2-1.1-14.5-2.2-21.7-3.3c0.6-2.3,1.1-4.1,1.3-5.4c0.2-1.3,0.4-2.8,0.6-4.4c1.2-8.1,1.3-13.7,0.4-16.7
		c-0.9-3-3.3-4.8-7.2-5.4c-3.6-0.5-6.1,0.2-7.5,2.2c-1.5,1.9-2.6,6.1-3.5,12.5c-3.5,25.6-7,51.2-10.5,76.8c-0.3,2.5-0.6,4.4-0.8,5.7
		c-0.2,1.3-0.3,2.4-0.3,3.2c0,0.8-0.1,1.5,0,2c0,0.5,0,1.1,0.1,1.9c0.2,2.1,0.9,3.8,2.1,5.2c1.2,1.4,2.7,2.1,4.5,2.4
		c2,0.3,3.9-0.1,5.6-1.2c1.7-1.1,3-2.6,3.7-4.6c0.5-1.4,0.9-2.8,1.2-4.1c0.3-1.3,0.7-4,1.3-8c1-7,2-13.9,3.1-20.9
		c-3.1-0.5-6.2-0.9-9.3-1.3c0.8-5.7,1.6-11.5,2.4-17.2c10.3,1.4,20.6,3,30.8,4.6C567.8,119.6,563.9,144.1,560,168.7z"/>
</g>
</svg>
