<?xml version="1.0" encoding="utf-8"?>
<!-- Generator: Adobe Illustrator 22.0.0, SVG Export Plug-In . SVG Version: 6.00 Build 0)  -->
<svg version="1.1" id="Calque_1" xmlns="http://www.w3.org/2000/svg" xmlns:xlink="http://www.w3.org/1999/xlink" x="0px" y="0px"
	 viewBox="0 0 627 169.8" style="enable-background:new 0 0 627 169.8;" xml:space="preserve">
<style type="text/css">
	.st0{fill:#111111;}
</style>
<g>
	<path class="st0" d="M21,21.6c5.2-0.8,9.6-1.2,13.4-1.4c3.7-0.2,7,0.1,9.8,0.6c2.8,0.6,5.2,1.6,7.2,3c2,1.4,4,3.3,6.1,5.5
		c1.3,1.8,2.5,3.5,3.5,5.3c1,1.8,1.9,3.8,2.7,6c0.8,2.2,1.4,4.7,2,7.6c0.6,2.9,1.2,6.4,1.7,10.4c0.6,5.1,1.1,9.4,1.3,12.9
		c0.2,3.5,0.2,6.6-0.1,9.3c-0.3,2.7-0.8,5.1-1.6,7.1c-0.8,2-1.9,4-3.1,6c-4.8,7-13.4,11.3-26,13.1c-1,0.1-1.9,0.3-2.9,0.4
		c2.9,19.7,5.8,39.3,8.7,59c-6.9,1-13.7,2.1-20.6,3.1C15.3,121.4,7.7,73.1,0,24.8C7,23.7,14,22.6,21,21.6z M35.1,88.5
		c7.5-1.1,11.7-4,12.6-8.9c0.1-1.2,0.1-3.5,0-6.9c-0.2-3.4-0.5-7-1-10.7c-0.5-3.6-1.1-7.1-1.9-10.4c-0.8-3.3-1.4-5.5-1.9-6.6
		c-2.2-4.4-7.1-6.1-14.8-5c-1,0.1-2,0.3-3,0.4c2.4,16.2,4.8,32.4,7.1,48.5C33.1,88.8,34.1,88.6,35.1,88.5z"/>
	<path class="st0" d="M149.8,116.6c0.4,4.4,0.6,8,0.7,10.8c0.1,2.8,0.1,5.2,0,7.2c-0.1,2-0.4,3.7-0.9,5.2c-0.5,1.4-1.2,3-2,4.7
		c-2.2,4-5.3,7.3-9.5,9.8c-4.1,2.5-8.8,4.1-13.9,4.6c-5.1,0.5-10,0-14.5-1.7c-4.6-1.6-8.3-4.2-11.3-7.7c-1.2-1.5-2.2-2.9-3-4.2
		c-0.8-1.3-1.4-2.9-2-4.9c-0.6-1.9-1.1-4.3-1.5-7c-0.4-2.8-0.9-6.3-1.4-10.7C87.7,98.8,84.8,74.9,82,51c-0.5-4.4-0.9-7.9-1.2-10.7
		c-0.3-2.8-0.3-5.2-0.1-7.2c0.2-2,0.5-3.7,0.9-5.2c0.5-1.5,1.2-3,2.1-4.8c2.2-4,5.6-7.3,10-9.9c4.4-2.6,9.4-4.2,15-4.8
		c5.5-0.6,10.8,0,15.6,1.7c4.9,1.7,8.8,4.2,11.8,7.6c1.2,1.5,2.2,2.9,3,4.3c0.7,1.3,1.4,3,1.9,4.9c0.5,1.9,0.9,4.3,1.3,7.1
		c0.4,2.8,0.8,6.3,1.2,10.7C145.6,68.6,147.7,92.6,149.8,116.6z M120.8,38.6c-0.4-4.2-1.4-7.2-3-8.8c-1.6-1.7-3.9-2.4-7.2-2
		c-3.1,0.3-5.2,1.5-6.5,3.4c-1.3,2-1.7,5.1-1.2,9.3c3.2,29.4,6.3,58.8,9.5,88.2c0.5,4.2,1.4,7.2,2.9,8.8c1.5,1.7,3.7,2.4,6.8,2
		c2.9-0.3,4.9-1.4,6.1-3.4c1.2-2,1.6-5,1.2-9.3C126.6,97.4,123.7,68,120.8,38.6z"/>
	<path class="st0" d="M180.7,4.5c4.9-0.3,9.2-0.4,12.8-0.2c3.7,0.2,6.8,0.8,9.6,1.6c2.7,0.9,5.1,2.1,7.1,3.8c2,1.7,3.8,3.7,5.5,6.1
		c2.4,3.4,4.1,7.3,5.3,11.5c1.1,4.3,1.9,9.5,2.1,15.6c0.2,4.7,0.2,8.7,0.1,11.9c-0.2,3.2-0.6,6.2-1.2,8.9c-0.6,2.7-1.6,5.2-2.8,7.6
		c-1.3,2.4-3,5-5.1,7.7c6.2,23.1,12.1,46.2,18,69.4c-7.3,0.3-14.6,0.7-22,1.1c-5.1-20.8-10.4-41.6-15.8-62.3
		c-1.8,0.4-3.1,0.7-3.8,0.8c-0.8,0.1-2,0.3-3.6,0.6c1.4,20.7,2.8,41.4,4.1,62.1c-6.9,0.5-13.8,1-20.7,1.5
		c-3.8-48.8-7.6-97.5-11.4-146.3C166.1,5.5,173.4,5,180.7,4.5z M188.3,67.9c7.4-0.5,11.8-3,13-7.6c0.3-0.9,0.4-1.8,0.5-2.7
		c0.1-0.9,0.2-2.1,0.3-3.5c0.1-1.5,0-3.3-0.1-5.5c-0.1-2.2-0.3-5-0.5-8.3c-0.4-6.9-1.7-11.5-4.1-13.9c-2.3-2.4-6.3-3.4-12.1-3
		c-1,0.1-2,0.1-3,0.2c1,14.9,2,29.7,3,44.6C186.4,68.1,187.4,68,188.3,67.9z"/>
	<path class="st0" d="M256.5,20.2c-6.8,0.2-13.7,0.4-20.5,0.7c-0.3-6.4-0.5-12.9-0.8-19.3c21.6-0.9,43.2-1.4,64.8-1.5
		c0,6.5,0.1,12.9,0.1,19.4c-7.2,0.1-14.3,0.1-21.5,0.3c0.8,42.5,1.6,84.9,2.3,127.4c-6.9,0.1-13.8,0.3-20.8,0.5
		C259,105.1,257.7,62.7,256.5,20.2z"/>
	<path class="st0" d="M364.8,0.6c-0.2,6.5-0.3,12.9-0.5,19.4c-10.4-0.3-20.8-0.4-31.1-0.5c-0.1,13.6-0.2,27.1-0.4,40.7
		c7.1,0.1,14.2,0.2,21.3,0.3c-0.1,6.5-0.3,12.9-0.4,19.4c-7-0.1-14-0.2-21.1-0.3c-0.2,22.4-0.4,44.9-0.6,67.3
		c-6.9-0.1-13.8-0.1-20.8-0.1C311.1,97.8,311,48.9,310.9,0C328.9,0,346.8,0.2,364.8,0.6z"/>
	<path class="st0" d="M435.5,113.1c-0.3,4.4-0.6,8-0.9,10.7c-0.3,2.8-0.7,5.1-1.1,7.1c-0.4,2-1,3.6-1.6,5c-0.7,1.4-1.6,2.8-2.7,4.4
		c-2.7,3.7-6.3,6.4-10.8,8.3c-4.5,1.9-9.3,2.7-14.4,2.5c-5.1-0.2-9.8-1.5-14.1-3.8c-4.3-2.3-7.6-5.4-10-9.3c-1-1.6-1.7-3.2-2.3-4.6
		c-0.5-1.4-1-3.1-1.3-5.1c-0.3-2-0.5-4.4-0.4-7.2c0-2.8,0.1-6.4,0.2-10.8c0.8-24,1.5-48.1,2.3-72.1c0.1-4.4,0.3-8,0.5-10.8
		c0.2-2.8,0.5-5.2,0.9-7.1c0.5-2,1-3.6,1.7-5c0.7-1.4,1.6-2.8,2.8-4.4c2.8-3.6,6.6-6.3,11.4-8.3c4.8-1.9,9.9-2.8,15.5-2.5
		c5.6,0.3,10.6,1.6,15.2,4c4.6,2.4,8.1,5.5,10.5,9.3c1,1.7,1.8,3.2,2.3,4.7c0.5,1.4,0.9,3.1,1.1,5.1c0.2,2,0.3,4.4,0.3,7.2
		c0,2.8-0.2,6.4-0.4,10.8C438.5,65.1,437,89.1,435.5,113.1z M418.5,31.7c0.2-4.2-0.3-7.3-1.6-9.2c-1.3-1.9-3.5-2.9-6.8-3.1
		c-3.1-0.1-5.4,0.7-6.9,2.4c-1.5,1.8-2.4,4.8-2.6,9c-1.3,29.6-2.5,59.1-3.8,88.7c-0.2,4.2,0.3,7.3,1.6,9.2c1.2,1.9,3.4,2.9,6.4,3
		c2.9,0.1,5.1-0.7,6.5-2.4c1.5-1.8,2.3-4.7,2.5-9C415.4,90.8,417,61.2,418.5,31.7z"/>
	<path class="st0" d="M461,5c7.5,0.5,14.9,1.1,22.3,1.7c-3.5,42.4-7.1,84.8-10.6,127.2c9.8,0.8,19.6,1.7,29.4,2.7
		c-0.6,6.4-1.3,12.8-1.9,19.3c-16.6-1.6-33.2-3.1-49.8-4.3C453.9,102.8,457.4,53.9,461,5z"/>
	<path class="st0" d="M532.9,159.4c-6.9-0.8-13.8-1.6-20.7-2.3c5.1-48.6,10.3-97.3,15.4-145.9c7.4,0.8,14.9,1.6,22.3,2.5
		C544.3,62.3,538.6,110.8,532.9,159.4z"/>
	<path class="st0" d="M613.8,132.8c-0.7,4.3-1.3,7.9-1.9,10.6c-0.6,2.7-1.2,5-1.8,7c-0.6,1.9-1.3,3.5-2.1,4.8
		c-0.8,1.3-1.8,2.6-3.1,4.1c-3.1,3.4-6.9,5.8-11.6,7.2c-4.6,1.5-9.5,1.8-14.6,1.1c-5.1-0.7-9.7-2.4-13.7-5.1
		c-4-2.7-7.1-6.1-9.1-10.2c-0.8-1.7-1.4-3.3-1.9-4.8c-0.4-1.5-0.7-3.2-0.8-5.2c-0.1-2,0-4.4,0.2-7.2c0.3-2.8,0.7-6.3,1.2-10.7
		c3-23.9,6-47.7,9.1-71.6c0.6-4.4,1-7.9,1.5-10.7c0.4-2.8,1-5.1,1.6-7c0.6-1.9,1.4-3.5,2.2-4.8c0.8-1.3,1.9-2.7,3.2-4.1
		c3.1-3.3,7.2-5.7,12.1-7.2c4.9-1.5,10.2-1.8,15.7-1c5.5,0.8,10.5,2.6,14.8,5.4c4.3,2.8,7.5,6.2,9.6,10.3c0.8,1.8,1.5,3.4,1.9,4.9
		c0.4,1.5,0.6,3.2,0.6,5.2c0,2-0.1,4.4-0.4,7.2c-0.3,2.8-0.8,6.3-1.5,10.7C621.3,85.3,617.6,109.1,613.8,132.8z M604.5,50.1
		c0.6-4.2,0.4-7.3-0.7-9.3c-1.1-2-3.3-3.2-6.5-3.7c-3-0.4-5.4,0.2-7.1,1.8c-1.7,1.6-2.8,4.5-3.4,8.7c-4,29.3-8.1,58.6-12.1,87.9
		c-0.6,4.2-0.3,7.3,0.7,9.3c1,2,3.1,3.2,6.1,3.6c2.9,0.4,5.1-0.2,6.8-1.8c1.6-1.6,2.8-4.5,3.4-8.7
		C595.9,108.7,600.2,79.4,604.5,50.1z"/>
</g>
</svg>
