<?xml version="1.0" encoding="utf-8"?>
<!-- Generator: Adobe Illustrator 22.0.0, SVG Export Plug-In . SVG Version: 6.00 Build 0)  -->
<svg version="1.1" id="Calque_1" xmlns="http://www.w3.org/2000/svg" xmlns:xlink="http://www.w3.org/1999/xlink" x="0px" y="0px"
	 viewBox="0 0 795.5 176.2" style="enable-background:new 0 0 795.5 176.2;" xml:space="preserve">
<style type="text/css">
	.st0{fill:#111111;}
</style>
<g>
	<path class="st0" d="M0,31c7.3-1.2,14.6-2.3,21.8-3.4c6.3,42.1,12.6,84.1,18.9,126.2c9.7-1.5,19.4-2.8,29.2-4.2
		c0.9,6.4,1.8,12.8,2.6,19.2c-16.5,2.3-33,4.7-49.5,7.3C15.3,127.8,7.7,79.4,0,31z"/>
	<path class="st0" d="M140.4,122.9c0.5,4.4,0.8,8,0.9,10.7c0.1,2.8,0.2,5.2,0.1,7.2c-0.1,2-0.4,3.7-0.8,5.2c-0.4,1.5-1.1,3-1.9,4.7
		c-2.1,4.1-5.2,7.4-9.3,10c-4.1,2.6-8.7,4.2-13.8,4.8c-5.1,0.6-10,0.1-14.6-1.4c-4.6-1.6-8.4-4.1-11.4-7.5c-1.2-1.5-2.2-2.9-3-4.2
		c-0.8-1.3-1.5-2.9-2.1-4.8c-0.6-1.9-1.2-4.2-1.6-7c-0.4-2.8-0.9-6.3-1.5-10.7c-3.1-23.8-6.3-47.7-9.4-71.5c-0.6-4.4-1-7.9-1.3-10.7
		c-0.3-2.8-0.4-5.2-0.2-7.2c0.1-2,0.4-3.7,0.8-5.2c0.4-1.5,1.1-3.1,2-4.8c2.2-4,5.4-7.3,9.7-10c4.3-2.7,9.2-4.4,14.7-5
		c5.4-0.6,10.6-0.2,15.4,1.4c4.8,1.6,8.8,4.1,11.8,7.4c1.3,1.5,2.3,2.9,3,4.2c0.8,1.3,1.4,2.9,1.9,4.9c0.5,1.9,1,4.3,1.5,7
		c0.4,2.8,0.9,6.3,1.4,10.7C135.3,75.1,137.8,99,140.4,122.9z M110.2,45.4c-0.5-4.2-1.5-7.1-3.1-8.8c-1.6-1.7-3.9-2.3-7.1-1.9
		c-3,0.4-5.1,1.5-6.3,3.5c-1.2,2-1.5,5.1-1,9.3c3.6,29.4,7.2,58.7,10.8,88.1c0.5,4.2,1.5,7.1,3,8.8c1.5,1.7,3.8,2.3,6.8,1.9
		c2.9-0.3,4.9-1.5,6-3.5c1.2-2,1.5-5.1,1-9.3C117,104.2,113.6,74.8,110.2,45.4z"/>
	<path class="st0" d="M168.5,10.3c4.8-0.4,9-0.6,12.6-0.4c3.6,0.1,6.8,0.6,9.5,1.4c2.7,0.8,5.1,2,7.1,3.6c2,1.6,3.9,3.6,5.6,6
		c2.4,3.3,4.3,7.1,5.5,11.4c1.2,4.2,2.1,9.4,2.6,15.6c0.3,4.7,0.5,8.6,0.4,11.9c-0.1,3.2-0.4,6.2-0.9,8.9c-0.6,2.7-1.4,5.3-2.6,7.7
		c-1.2,2.4-2.8,5.1-4.8,7.9c6.7,22.9,13.3,45.9,19.8,68.9c-7.3,0.5-14.6,1.1-21.9,1.7c-5.7-20.7-11.4-41.3-17.3-61.9
		c-1.8,0.5-3,0.7-3.8,0.9c-0.7,0.1-1.9,0.4-3.6,0.7c1.9,20.7,3.7,41.3,5.6,62c-6.9,0.6-13.8,1.3-20.7,2c-4.8-48.7-9.6-97.4-14.5-146
		C154.2,11.6,161.3,10.9,168.5,10.3z M177.6,73.5c7.3-0.7,11.6-3.3,12.7-7.9c0.2-0.9,0.4-1.8,0.5-2.7c0.1-0.9,0.1-2.1,0.2-3.5
		c0-1.5,0-3.3-0.2-5.5c-0.2-2.2-0.4-5-0.7-8.3c-0.6-6.9-2-11.5-4.4-13.8c-2.3-2.3-6.3-3.2-12-2.7c-1,0.1-2,0.2-3,0.3
		c1.3,14.8,2.7,29.7,4,44.5C175.7,73.7,176.7,73.6,177.6,73.5z"/>
	<path class="st0" d="M281.3,2.6c0.3,6.4,0.6,12.9,0.9,19.3c-10.2,0.5-20.5,1-30.7,1.6c0.8,13.5,1.6,27.1,2.4,40.6
		c7-0.4,14-0.8,21-1.1c0.3,6.4,0.6,12.9,1,19.3c-7,0.3-13.9,0.7-20.9,1.1c0.9,16,1.9,31.9,2.8,47.9c10.4-0.6,20.8-1.1,31.1-1.6
		c0.3,6.4,0.6,12.9,0.9,19.3c-17.2,0.8-34.4,1.7-51.6,2.9c-3.3-48.8-6.5-97.6-9.8-146.4C246,4.4,263.6,3.4,281.3,2.6z"/>
	<path class="st0" d="M353.9,0.3c8.8-0.2,17.5-0.3,26.3-0.3c0.3,48.9,0.7,97.8,1,146.7c-5.9,0-11.8,0.1-17.7,0.2
		c-0.5-34.5-1-69.1-1.5-103.6c-5.5,34.6-10.7,69.3-15.7,103.9c-2.9,0.1-5.9,0.1-8.8,0.2c-6.6-34.4-13.5-68.7-20.6-103.1
		c1.1,34.5,2.2,69,3.4,103.6c-5.7,0.2-11.5,0.4-17.2,0.6c-1.9-48.9-3.9-97.8-5.8-146.6c8.6-0.3,17.2-0.6,25.8-0.9
		c5.9,24.2,11.6,48.4,17.2,72.6C344.6,49.2,349.2,24.7,353.9,0.3z"/>
	<path class="st0" d="M457.8,147.4c-6.9-0.2-13.8-0.3-20.8-0.4c0.8-48.9,1.6-97.8,2.4-146.7c7.3,0.1,14.7,0.3,22,0.5
		C460.3,49.6,459.1,98.5,457.8,147.4z"/>
	<path class="st0" d="M500.9,2c5.1,0.2,9.5,0.6,13.1,1.1c3.6,0.5,6.7,1.3,9.3,2.4c2.6,1.1,4.7,2.5,6.4,4.3c1.7,1.8,3.3,4,4.9,6.5
		c1,2,1.8,3.9,2.5,5.9c0.7,1.9,1.2,4.1,1.5,6.4c0.3,2.3,0.5,4.9,0.6,7.9c0.1,2.9,0,6.5-0.2,10.6c-0.3,5.1-0.6,9.4-1.1,12.9
		c-0.4,3.5-1,6.6-1.8,9.2c-0.8,2.6-1.7,4.8-2.9,6.7c-1.2,1.8-2.5,3.6-4.1,5.3c-5.9,6-15.1,8.7-27.7,8.1c-1,0-1.9-0.1-2.9-0.1
		c-0.8,19.9-1.6,39.7-2.4,59.6c-6.9-0.3-13.8-0.5-20.8-0.8c1.6-48.9,3.2-97.8,4.7-146.7C487,1.5,493.9,1.7,500.9,2z M502.2,70.3
		c7.5,0.3,12.1-1.8,13.8-6.4c0.4-1.2,0.8-3.4,1.2-6.8c0.5-3.4,0.8-6.9,1-10.7c0.2-3.7,0.2-7.2,0-10.6c-0.1-3.4-0.3-5.7-0.6-6.9
		c-1.3-4.8-5.8-7.3-13.4-7.7c-1,0-2-0.1-3-0.1c-0.7,16.3-1.3,32.7-2,49C500.2,70.3,501.2,70.3,502.2,70.3z"/>
	<path class="st0" d="M568.3,109.1c-0.1,2-0.3,4-0.4,5.9c-0.5,7.8-0.2,13.1,1.1,16.2c1.3,3,3.9,4.7,8,5c6.1,0.5,9.6-4.1,10.4-13.7
		c0.2-2.3,0.2-4.5,0-6.6c-0.2-2.1-0.7-4.2-1.5-6.5c-0.8-2.3-1.9-4.7-3.4-7.3c-1.5-2.6-3.4-5.7-5.7-9.2c-3.1-5.2-6.2-10.4-9.4-15.6
		c-3-4.9-5.5-9.3-7.5-13.2c-2-3.9-3.5-7.5-4.7-10.9c-1.2-3.4-1.9-6.6-2.3-9.6c-0.4-3-0.4-6.2-0.2-9.4c0.6-9.6,3.9-17.1,10.1-22.5
		c6.1-5.3,14.1-7.6,24-6.9c7.5,0.6,13.6,2.9,18.3,7.1c4.7,4.2,7.5,9.7,8.4,16.6c0.2,1.3,0.3,2.5,0.4,3.5c0.1,1,0.1,2,0.1,3.2
		c0,1.2-0.1,2.6-0.3,4.4c-0.2,1.8-0.4,4.2-0.6,7.2c-7,0.1-14.1,0.1-21.1,0.3c0.3-3.8,0.5-6.5,0.5-8.2c0.1-1.7,0-3.3-0.2-5
		c-0.3-6.2-3-9.5-8.2-9.9c-6-0.4-9.3,3.9-9.9,12.9c-0.2,2.2-0.2,4.1-0.1,5.8c0.1,1.7,0.6,3.6,1.4,5.7c0.8,2.1,2.2,4.8,4,8
		c1.8,3.2,4.3,7.5,7.4,12.9c3.2,5.2,6.4,10.5,9.5,15.7c4.3,7.4,7.4,14.8,9.4,22.1c2,7.3,2.7,14.1,2.2,20.4
		c-0.9,9.8-4.1,17.1-9.7,21.9c-5.6,4.8-13.2,6.8-22.8,6.1c-10.9-0.8-18.9-5.1-24-13c-2.3-3.6-3.8-7.2-4.5-10.8
		c-0.7-3.7-0.8-8.7-0.4-15.1c0.1-1.6,0.2-2.9,0.2-3.8c0.1-1,0.2-2.3,0.5-4C554.4,108.7,561.4,108.9,568.3,109.1z"/>
	<path class="st0" d="M642.9,130.1c-0.4,4.2-0.1,7.3,1.1,9.3c1.2,2,3.2,3.1,6.1,3.4c3,0.3,5.3-0.4,6.8-2c1.5-1.7,2.5-4.6,2.9-8.9
		c4.2-39.1,8.5-78.2,12.7-117.2c7.3,0.8,14.6,1.6,21.9,2.5c-4.3,36.3-8.5,72.5-12.8,108.8c-0.5,4.4-1,7.9-1.5,10.7
		c-0.5,2.8-1,5.1-1.5,7c-0.5,1.9-1.2,3.6-1.9,4.9c-0.8,1.3-1.7,2.7-3,4.2c-2.9,3.4-6.7,5.9-11.2,7.6c-4.6,1.7-9.4,2.2-14.5,1.7
		c-5.1-0.5-9.7-2.1-13.9-4.7c-4.1-2.6-7.3-5.8-9.4-9.7c-0.9-1.7-1.5-3.3-2-4.8c-0.5-1.5-0.8-3.2-1-5.2c-0.2-2-0.2-4.4,0-7.2
		c0.2-2.8,0.5-6.4,0.9-10.7c3.4-36.4,6.8-72.7,10.1-109.1c7.3,0.7,14.6,1.4,22,2.1C650.9,51.9,646.9,91,642.9,130.1z"/>
	<path class="st0" d="M769.5,27.3c8.7,1.3,17.4,2.6,26,4c-7.7,48.3-15.3,96.6-23,144.9c-5.8-0.9-11.7-1.8-17.5-2.7
		c5.2-34.2,10.3-68.3,15.5-102.5c-11.1,33.3-21.9,66.6-32.5,99.9c-2.9-0.4-5.8-0.8-8.8-1.2c-0.9-35-2.1-70-3.5-105.1
		c-4.5,34.2-9.1,68.5-13.6,102.7c-5.7-0.8-11.4-1.5-17.1-2.2c6.1-48.5,12.1-97.1,18.2-145.6c8.5,1.1,17.1,2.2,25.6,3.3
		c1.9,24.8,3.6,49.6,5.1,74.4C752.3,74,760.8,50.6,769.5,27.3z"/>
</g>
</svg>
